<svg width="719" height="135" viewBox="0 0 719 135" fill="none" xmlns="http://www.w3.org/2000/svg">
<rect width="718.465" height="135" rx="15" fill="url(#paint0_angular)"/>
<path d="M385.223 94.3996C384.836 94.1774 384.459 93.9552 384.081 93.733C383.703 93.5108 383.361 93.3109 383.054 93.1331C382.748 92.9509 382.526 92.822 382.383 92.742C382.246 92.6665 382.037 92.5554 381.77 92.4176C381.499 92.2799 381.201 92.1199 380.872 91.9466C380.544 91.7733 380.201 91.5955 379.855 91.4089C379.508 91.2267 379.188 91.0623 378.904 90.9245L379.188 90.4091C379.712 90.6401 380.081 90.7734 380.295 90.8134C380.508 90.849 380.704 90.8357 380.881 90.7734C381.059 90.7112 381.259 90.5201 381.486 90.2091C381.712 89.898 381.97 89.4758 382.263 88.947L385.214 83.65C385.29 83.5123 385.454 83.219 385.703 82.7746C385.952 82.3302 386.214 81.8547 386.494 81.3526C386.774 80.846 387.045 80.3572 387.294 79.8861C387.547 79.4151 387.721 79.0729 387.818 78.864C388.081 78.3174 388.289 77.882 388.44 77.5576C388.592 77.2332 388.685 76.9399 388.729 76.6777C388.752 76.5266 388.716 76.3622 388.618 76.1889C388.52 76.0111 388.374 75.8689 388.169 75.7578C388.045 75.6867 387.916 75.6201 387.778 75.5534C387.641 75.4867 387.458 75.4423 387.227 75.4156L387.361 74.7891C387.654 74.8113 388.032 74.8735 388.494 74.9757C388.956 75.0779 389.431 75.2068 389.916 75.3579C390.405 75.509 390.88 75.6689 391.342 75.8467C391.805 76.0244 392.191 76.1978 392.502 76.3711C393.018 76.6555 393.289 76.971 393.32 77.3176C393.356 77.5442 393.338 77.7886 393.262 78.0508C393.187 78.313 393.022 78.673 392.773 79.1218C390.969 82.3569 389.52 84.9476 388.427 86.8984C387.329 88.8448 386.556 90.2313 386.094 91.0578C385.756 91.6666 385.534 92.1332 385.432 92.4621C385.33 92.7909 385.29 93.0442 385.312 93.222C385.343 93.382 385.423 93.5553 385.547 93.733C385.672 93.9152 385.979 94.1641 386.476 94.4796L386.192 94.9906C385.939 94.8218 385.61 94.6218 385.223 94.3996Z" fill="#007B0A"/>
<path d="M355.801 68.063C356.054 68.5385 356.338 69.0007 356.654 69.4495C356.969 69.9383 357.48 70.3649 358.196 70.7249C358.911 71.0848 359.636 71.3026 360.378 71.3692C361.271 71.4536 361.969 71.3692 362.471 71.1115C362.973 70.8537 363.253 70.3827 363.32 69.6983C363.338 69.4895 363.307 69.2895 363.222 69.094C363.138 68.8985 362.955 68.6852 362.684 68.463C362.409 68.2363 362.018 68.0008 361.516 67.7564C361.009 67.512 360.347 67.2231 359.529 66.8943C358.56 66.5299 357.769 66.1433 357.165 65.73C356.561 65.3167 356.089 64.8813 355.761 64.4191C355.432 63.9569 355.218 63.4815 355.121 62.9926C355.027 62.5038 355.005 61.975 355.058 61.4151C355.13 60.6685 355.378 60.0153 355.805 59.4598C356.232 58.9043 356.787 58.4466 357.48 58.0956C358.169 57.7401 358.974 57.5001 359.889 57.3623C360.805 57.229 361.773 57.2112 362.795 57.3046C364.457 57.4601 365.728 57.7089 366.613 58.0422C367.497 58.3755 368.026 58.7088 368.199 59.0421C368.31 59.2198 368.373 59.3976 368.382 59.5798C368.39 59.7575 368.382 59.9708 368.359 60.2197C368.35 60.3219 368.315 60.4997 368.253 60.7441C368.19 60.9885 368.115 61.2595 368.022 61.5528C367.928 61.8461 367.839 62.1305 367.746 62.4061C367.657 62.6816 367.591 62.8904 367.551 63.0326L366.591 62.9438C366.595 62.335 366.515 61.7173 366.342 61.0818C366.168 60.4463 365.933 59.9486 365.631 59.5842C365.235 59.1087 364.76 58.7755 364.2 58.5844C363.64 58.3933 363.022 58.2689 362.36 58.2067C361.618 58.1356 360.965 58.2378 360.4 58.5088C359.831 58.7799 359.525 59.1976 359.471 59.7575C359.454 59.9664 359.471 60.1664 359.529 60.3619C359.587 60.5574 359.729 60.7574 359.956 60.9663C360.178 61.1751 360.498 61.4062 360.916 61.655C361.329 61.9039 361.871 62.175 362.542 62.4683C363.68 62.9749 364.626 63.4415 365.386 63.8681C366.146 64.2947 366.746 64.7346 367.195 65.1879C367.639 65.6367 367.937 66.1122 368.084 66.6054C368.23 67.1032 368.275 67.672 368.213 68.3163C368.137 69.1251 367.853 69.805 367.364 70.356C366.875 70.9071 366.257 71.3425 365.52 71.6581C364.782 71.978 363.951 72.1869 363.027 72.2846C362.102 72.3868 361.169 72.3913 360.222 72.3024C359.071 72.1958 357.987 72.018 356.965 71.7736C355.943 71.5292 355.161 71.1826 354.61 70.7337C354.201 70.4227 353.996 69.9427 353.992 69.294C353.987 68.6452 354.05 67.6542 354.174 66.3255L355.094 66.4144C355.312 67.0365 355.552 67.5875 355.801 68.063Z" fill="#F80402"/>
<path d="M375.274 72.2647C374.799 72.2558 374.332 72.2469 373.875 72.238C373.417 72.2291 373.004 72.2203 372.63 72.2114C372.257 72.2025 371.977 72.198 371.79 72.198C371.604 72.198 371.315 72.2025 370.919 72.2114C370.524 72.2203 370.084 72.2291 369.6 72.238C369.111 72.2469 368.622 72.2558 368.124 72.2647C367.626 72.2736 367.191 72.2869 366.818 72.3047V71.7314C367.48 71.6781 367.933 71.6203 368.169 71.5492C368.409 71.4781 368.6 71.3759 368.742 71.2337C368.866 71.1137 368.96 70.8604 369.022 70.4783C369.084 70.0961 369.115 69.6073 369.115 69.0163V63.0927C369.115 62.9371 369.115 62.6305 369.115 62.1773C369.115 61.724 369.115 61.2307 369.115 60.6886C369.115 60.1509 369.111 59.6132 369.097 59.0844C369.088 58.5555 369.084 58.1156 369.084 57.7645C369.062 56.618 368.951 55.8493 368.742 55.4671C368.657 55.3293 368.524 55.2049 368.337 55.1027C368.151 55.0005 367.924 54.9472 367.653 54.9472C367.489 54.9472 367.298 54.965 367.08 55.0005C366.862 55.0361 366.671 55.0716 366.507 55.1027L366.293 54.5072C366.604 54.3873 367.022 54.2584 367.551 54.1295C368.08 54.0006 368.635 53.8807 369.213 53.7785C369.791 53.6762 370.368 53.5874 370.937 53.5163C371.506 53.4452 371.999 53.4141 372.413 53.4141C372.764 53.4141 373.066 53.4585 373.315 53.5429C373.564 53.6318 373.741 53.7251 373.844 53.8318C373.99 54.0051 374.092 54.2228 374.155 54.485C374.217 54.7472 374.248 55.1294 374.248 55.6315C374.248 56.7291 374.235 57.6712 374.203 58.4622C374.172 59.2532 374.132 59.942 374.079 60.5242C374.026 61.1063 373.972 61.6173 373.91 62.0484C373.848 62.4839 373.795 62.8927 373.755 63.2749L374.004 63.3282C374.399 62.2306 375.066 61.3818 376.008 60.773C376.95 60.1642 378.083 59.8576 379.412 59.8576C380.096 59.8576 380.665 59.9154 381.123 60.0264C381.576 60.1375 381.949 60.2931 382.243 60.4842C382.532 60.6752 382.763 60.9108 382.927 61.1907C383.091 61.4707 383.207 61.764 383.269 62.0795C383.331 62.3772 383.38 62.7238 383.411 63.1238C383.443 63.5237 383.456 64.0303 383.456 64.6391V68.4475C383.456 68.7941 383.478 69.1451 383.518 69.4918C383.558 69.8384 383.603 70.1183 383.643 70.3272C383.705 70.6249 383.834 70.8249 384.029 70.9404C384.225 71.0515 384.438 71.1093 384.665 71.1093C384.851 71.1093 385.025 71.096 385.193 71.0693C385.358 71.0426 385.576 70.976 385.847 70.8738L386.127 71.3937C385.589 71.6381 384.971 71.8781 384.278 72.1092C383.585 72.3447 382.771 72.4602 381.838 72.4602C381.114 72.4602 380.536 72.3847 380.114 72.238C379.687 72.0914 379.394 71.9225 379.23 71.727C379.105 71.5892 378.985 71.4426 378.874 71.2959C378.759 71.1493 378.665 70.976 378.594 70.776C378.523 70.576 378.465 70.3316 378.425 70.0472C378.385 69.7584 378.363 69.3984 378.363 68.9629V64.3947C378.363 64.0836 378.359 63.737 378.345 63.3637C378.336 62.9905 378.31 62.6483 378.27 62.3328C378.23 62.035 378.119 61.8306 377.945 61.7062C377.768 61.5862 377.576 61.524 377.372 61.524C377.021 61.524 376.634 61.6218 376.221 61.8129C375.808 62.0039 375.403 62.4039 375.008 63.0127C374.781 63.3771 374.595 63.9059 374.448 64.5902C374.301 65.279 374.23 65.9678 374.23 66.6655V68.9896C374.23 69.7362 374.275 70.2605 374.368 70.5538C374.461 70.8516 374.559 71.0604 374.661 71.1804C374.763 71.2826 374.932 71.3937 375.159 71.5048C375.386 71.6203 375.852 71.6914 376.559 71.727V72.3002C376.177 72.2869 375.75 72.2736 375.274 72.2647Z" fill="#F80402"/>
<path d="M305.792 59.8023C306.526 58.4736 307.641 57.3138 309.143 56.3361C310.645 55.354 312.534 54.5764 314.805 53.9987C317.08 53.421 319.746 53.0833 322.813 52.9811C325.955 52.8788 328.781 53.0566 331.296 53.5232C333.812 53.9854 335.945 54.6919 337.7 55.6429C339.456 56.5939 340.811 57.767 341.766 59.1713C342.722 60.5755 343.228 62.1664 343.286 63.9395C343.402 67.4057 341.891 70.1386 338.753 72.1339C335.62 74.1336 331.003 75.2312 324.91 75.4312C321.733 75.5334 318.907 75.3512 316.427 74.8757C313.947 74.4002 311.85 73.6759 310.134 72.7071C308.419 71.7339 307.108 70.5297 306.21 69.0943C305.312 67.6545 304.832 66.0281 304.77 64.2106C304.721 62.6019 305.059 61.1354 305.792 59.8023ZM316.32 68.8854C316.685 70.2364 317.236 71.3295 317.96 72.1739C318.689 73.0182 319.609 73.6181 320.72 73.978C321.831 74.338 323.159 74.4935 324.71 74.4402C327.586 74.3469 329.594 73.4892 330.732 71.8672C331.874 70.2452 332.385 67.7212 332.274 64.2994C332.159 60.7266 331.416 58.0914 330.052 56.3895C328.688 54.6875 326.417 53.892 323.239 53.9942C320.591 54.0831 318.64 54.9141 317.382 56.5006C316.129 58.0825 315.556 60.5666 315.667 63.9439C315.738 65.8903 315.951 67.539 316.32 68.8854Z" fill="#F80402"/>
<path d="M353.658 73.7646C353.209 73.6758 352.667 73.5824 352.036 73.4758C351.405 73.3691 350.787 73.2669 350.183 73.1647C349.579 73.0625 349.019 72.9692 348.503 72.8803C347.988 72.7914 347.614 72.7337 347.388 72.6981C347.161 72.6626 346.832 72.6181 346.401 72.5648C345.97 72.5115 345.49 72.4448 344.957 72.3737C344.424 72.3026 343.881 72.2315 343.322 72.156C342.766 72.0804 342.255 72.0182 341.797 71.9693L341.904 71.3561C343.099 71.4805 343.913 71.4228 344.344 71.1783C344.575 71.0406 344.752 70.7695 344.872 70.3696C344.992 69.9652 345.108 69.4675 345.215 68.872L345.912 64.8726C346.103 63.7705 346.197 62.9395 346.192 62.3752C346.188 61.8108 346.103 61.4109 345.935 61.1753C345.828 61.042 345.712 60.9309 345.588 60.8332C345.464 60.7354 345.299 60.6732 345.095 60.6421C344.89 60.611 344.695 60.5888 344.504 60.5665C344.313 60.5488 344.033 60.5488 343.668 60.571L343.548 59.9222C344.059 59.8066 344.628 59.7222 345.246 59.6644C345.863 59.6067 346.49 59.5667 347.112 59.5445C347.739 59.5267 348.348 59.5267 348.939 59.5489C349.53 59.5711 350.054 59.6156 350.507 59.6867C350.863 59.74 351.223 59.8244 351.592 59.9355C351.961 60.0466 352.236 60.1755 352.418 60.3177C352.672 60.5088 352.832 60.7265 352.907 60.9665C352.983 61.2064 352.987 61.5131 352.921 61.8863C352.823 62.4463 352.729 62.9529 352.636 63.4061C352.543 63.8594 352.454 64.3082 352.365 64.7437C352.276 65.1792 352.183 65.628 352.094 66.0813C352.001 66.539 351.907 67.0456 351.81 67.6055L351.427 69.7874C351.303 70.494 351.258 71.0495 351.294 71.445C351.33 71.8449 351.41 72.1204 351.538 72.2715C351.65 72.3826 351.845 72.5204 352.129 72.6759C352.414 72.8314 352.956 72.9914 353.756 73.1514L353.658 73.7646ZM353.636 56.1938C353.512 56.5938 353.138 56.8737 352.521 57.0381C351.898 57.2026 351.187 57.247 350.379 57.1804C349.57 57.1092 348.903 56.9448 348.374 56.6871C347.845 56.4249 347.646 56.0961 347.766 55.6961C347.828 55.4961 347.97 55.3228 348.197 55.1806C348.423 55.0384 348.69 54.9229 349.001 54.8385C349.312 54.7496 349.654 54.6963 350.023 54.674C350.392 54.6518 350.756 54.6563 351.107 54.6874C351.916 54.7585 352.569 54.9229 353.072 55.1895C353.574 55.4428 353.765 55.7806 353.636 56.1938Z" fill="#F80402"/>
<path d="M405.283 75.828C404.79 75.5436 404.19 75.2103 403.493 74.8326C402.795 74.4549 402.11 74.086 401.439 73.7217C400.768 73.3573 400.146 73.0195 399.577 72.7085C399.004 72.3974 398.591 72.1752 398.342 72.0419C398.089 71.9086 397.72 71.7264 397.235 71.4864C396.751 71.2465 396.209 70.9798 395.613 70.6821C395.018 70.3844 394.405 70.0822 393.778 69.7711C393.151 69.46 392.583 69.1845 392.063 68.9401L392.445 68.2024C393.805 68.8246 394.787 69.069 395.396 68.9312C395.724 68.8468 396.044 68.5757 396.36 68.1136C396.671 67.6514 397.013 67.0648 397.387 66.3494L399.884 61.559C400.568 60.2436 401.026 59.226 401.257 58.5061C401.488 57.7906 401.555 57.2485 401.457 56.8841C401.386 56.6752 401.297 56.4886 401.186 56.3197C401.079 56.1508 400.911 56.0042 400.684 55.8887C400.457 55.7731 400.235 55.662 400.022 55.5643C399.804 55.4665 399.475 55.3598 399.035 55.2399L399.164 54.3733C399.813 54.4266 400.52 54.5377 401.275 54.7066C402.03 54.871 402.781 55.0666 403.528 55.2843C404.275 55.502 404.99 55.742 405.679 55.9998C406.368 56.2575 406.963 56.5197 407.474 56.7863C407.87 56.9907 408.261 57.2396 408.648 57.524C409.034 57.8128 409.305 58.0795 409.461 58.3328C409.679 58.6749 409.781 59.0082 409.767 59.3459C409.754 59.6792 409.63 60.0703 409.399 60.5191C409.048 61.1901 408.723 61.7945 408.425 62.3322C408.128 62.8699 407.834 63.3987 407.545 63.9186C407.257 64.4341 406.963 64.9629 406.666 65.5051C406.368 66.0428 406.043 66.6516 405.692 67.3181L404.332 69.9311C403.892 70.7799 403.608 71.4642 403.479 71.9797C403.35 72.4952 403.333 72.8773 403.421 73.1217C403.501 73.3084 403.679 73.5528 403.946 73.8639C404.212 74.1749 404.786 74.5882 405.666 75.0992L405.283 75.828ZM412.838 53.2579C412.438 53.7823 411.821 54.0667 410.981 54.1067C410.141 54.1467 409.261 53.9912 408.341 53.6445C407.421 53.2979 406.732 52.858 406.266 52.3292C405.799 51.7959 405.768 51.2671 406.168 50.7427C406.368 50.4805 406.643 50.2806 407.003 50.1517C407.363 50.0184 407.754 49.9384 408.176 49.9162C408.603 49.8895 409.043 49.9162 409.496 50.0006C409.95 50.085 410.376 50.2006 410.781 50.3517C411.696 50.6983 412.372 51.1338 412.803 51.6626C413.238 52.1825 413.247 52.7202 412.838 53.2579Z" fill="#F80402"/>
<path d="M338.166 96.0068C338.98 95.4602 339.513 95.0603 339.766 94.8025C340.024 94.5448 340.162 94.3137 340.179 94.1137C340.197 94.0071 340.202 93.8916 340.188 93.7671C340.175 93.6427 340.13 93.4961 340.059 93.3272C339.988 93.1583 339.895 92.9495 339.788 92.7051C339.677 92.4606 339.535 92.154 339.353 91.7852L333.251 79.427C332.976 78.867 332.709 78.3871 332.451 77.9872C332.194 77.5872 331.967 77.3384 331.776 77.2406C331.691 77.2095 331.58 77.1873 331.451 77.1651C331.323 77.1473 331.158 77.1428 330.963 77.1562C330.767 77.1695 330.518 77.214 330.22 77.2895C329.923 77.365 329.549 77.4895 329.109 77.6583L328.754 76.934C329.167 76.7518 329.607 76.5563 330.065 76.343C330.523 76.1297 330.967 75.9208 331.398 75.7208C331.825 75.5209 332.216 75.3387 332.571 75.1787C332.922 75.0187 333.207 74.8854 333.416 74.7787C333.607 74.6854 333.936 74.5166 334.393 74.2766C334.851 74.0366 335.34 73.7878 335.855 73.5167C336.371 73.2501 336.869 72.9923 337.344 72.7435C337.82 72.4946 338.197 72.3035 338.464 72.1702C339.642 71.5881 340.717 71.1526 341.69 70.8638C342.664 70.5749 343.543 70.4638 344.334 70.5305C345.126 70.5971 345.823 70.8504 346.436 71.2904C347.05 71.7303 347.574 72.3969 348.014 73.2812C348.321 73.8989 348.454 74.5299 348.423 75.1654C348.392 75.8053 348.227 76.4318 347.93 77.0451C347.632 77.6583 347.228 78.2582 346.708 78.8359C346.192 79.4181 345.583 79.9513 344.89 80.4357C345.663 80.1024 346.472 79.8491 347.321 79.6669C348.17 79.4892 348.987 79.4447 349.774 79.5336C350.561 79.6269 351.294 79.8758 351.965 80.2891C352.636 80.7023 353.187 81.3422 353.614 82.2088C354.538 84.0796 354.547 85.8172 353.645 87.4125C352.743 89.0123 351.054 90.4209 348.587 91.6385C348.201 91.8296 347.77 92.0385 347.29 92.2607C346.814 92.4829 346.325 92.7139 345.828 92.945C345.33 93.1805 344.841 93.4116 344.352 93.6383C343.863 93.8649 343.437 94.0737 343.072 94.2515C342.859 94.3582 342.584 94.4915 342.246 94.6603C341.908 94.8292 341.53 95.0203 341.108 95.238C340.69 95.4558 340.25 95.6913 339.797 95.9401C339.344 96.189 338.908 96.4245 338.495 96.6556L338.166 96.0068ZM340.819 81.991C340.993 81.9066 341.17 81.8311 341.353 81.7644C341.535 81.6977 341.686 81.6355 341.801 81.5778C342.166 81.3956 342.49 81.1467 342.766 80.8312C343.041 80.5157 343.232 80.1246 343.339 79.6669C343.446 79.2048 343.455 78.6715 343.352 78.0583C343.255 77.445 343.015 76.7562 342.632 75.983C341.957 74.6143 341.277 73.7611 340.597 73.4234C339.917 73.0901 339.082 73.1612 338.1 73.65C337.944 73.7256 337.793 73.8278 337.637 73.9522C337.482 74.0766 337.389 74.2322 337.362 74.4144C337.344 74.5699 337.38 74.7921 337.473 75.0809C337.566 75.3698 337.802 75.8897 338.171 76.6451L340.819 81.991ZM344.463 89.3722C344.97 90.3943 345.361 90.9942 345.637 91.1675C345.859 91.2742 346.068 91.3319 346.263 91.3453C346.459 91.3541 346.752 91.2653 347.139 91.0742C347.641 90.8253 348.054 90.532 348.379 90.1943C348.703 89.8566 348.916 89.4566 349.014 88.9989C349.112 88.5412 349.09 87.9991 348.952 87.3725C348.81 86.7459 348.534 86.0171 348.125 85.1906C347.667 84.2663 347.228 83.5508 346.801 83.0531C346.374 82.5554 345.934 82.2132 345.485 82.0266C345.032 81.84 344.566 81.7955 344.086 81.8888C343.606 81.9822 343.081 82.1688 342.526 82.4443C342.277 82.5687 342.037 82.6843 341.819 82.7954C341.597 82.9065 341.441 82.9953 341.357 83.062L344.463 89.3722Z" fill="#007B0A"/>
<path d="M396.711 71.7104C396.285 71.6926 395.769 71.6749 395.174 71.666C394.578 71.6571 393.996 71.6482 393.423 71.6393C392.849 71.6304 392.321 71.6215 391.832 71.6126C391.343 71.6037 390.992 71.5993 390.778 71.5993C390.565 71.5993 390.254 71.6037 389.85 71.6126C389.445 71.6215 388.992 71.6304 388.49 71.6393C387.988 71.6482 387.477 71.6571 386.952 71.666C386.428 71.6749 385.952 71.6882 385.521 71.7104V71.0883C386.641 71.0305 387.379 70.8527 387.739 70.5506C387.93 70.3817 388.05 70.0884 388.094 69.6707C388.143 69.2574 388.165 68.7464 388.165 68.142V64.0893C388.165 62.9739 388.117 62.1384 388.023 61.5785C387.93 61.023 387.783 60.6364 387.597 60.432C387.477 60.3165 387.352 60.2232 387.223 60.1476C387.09 60.0721 386.93 60.0365 386.739 60.0365C386.548 60.0365 386.366 60.041 386.183 60.0499C386.006 60.0587 385.748 60.1032 385.415 60.1787L385.201 59.5566C385.655 59.3699 386.161 59.1966 386.721 59.0455C387.281 58.8945 387.845 58.7611 388.419 58.65C388.992 58.539 389.552 58.4456 390.099 58.379C390.645 58.3123 391.134 58.2812 391.565 58.2812C391.898 58.2812 392.245 58.3079 392.601 58.3656C392.956 58.4234 393.232 58.5078 393.423 58.6189C393.685 58.77 393.871 58.9611 393.978 59.1878C394.085 59.4144 394.138 59.7166 394.138 60.0943C394.138 60.6631 394.134 61.1786 394.12 61.6407C394.107 62.1029 394.098 62.5562 394.085 63.0005C394.071 63.4449 394.063 63.8982 394.049 64.3603C394.036 64.8225 394.031 65.338 394.031 65.9068V68.1198C394.031 68.8397 394.08 69.3907 394.174 69.7773C394.267 70.164 394.387 70.4261 394.529 70.555C394.649 70.6483 394.849 70.755 395.138 70.8661C395.427 70.9772 395.947 71.0572 396.711 71.0927V71.7104ZM393.743 54.3351C393.743 54.815 393.48 55.1794 392.956 55.4327C392.432 55.686 391.787 55.8105 391.027 55.8105C390.263 55.8105 389.601 55.686 389.045 55.4327C388.485 55.1794 388.205 54.815 388.205 54.3351C388.205 54.0951 388.29 53.8818 388.454 53.6908C388.619 53.4997 388.836 53.3397 389.099 53.2108C389.361 53.0775 389.659 52.9798 389.992 52.9175C390.325 52.8553 390.658 52.8242 390.992 52.8242C391.756 52.8242 392.405 52.9531 392.938 53.2108C393.476 53.4686 393.743 53.8419 393.743 54.3351Z" fill="#F80402"/>
<path d="M363.876 82.6989C364.201 83.7565 364.383 84.7919 364.427 85.8006C364.467 86.8138 364.334 87.7515 364.023 88.6091C363.712 89.4712 363.205 90.2267 362.503 90.8755C361.805 91.5287 360.868 92.0309 359.703 92.3908C357.695 93.0085 356.002 92.8307 354.611 91.862C353.224 90.8932 352.184 89.2846 351.491 87.0271C351.149 85.9117 350.989 84.8586 351.02 83.8676C351.047 82.8766 351.242 81.979 351.607 81.1657C351.971 80.357 352.5 79.6593 353.202 79.0727C353.904 78.4861 354.766 78.0373 355.784 77.7218C357.824 77.0952 359.517 77.2241 360.859 78.1084C362.201 78.9972 363.21 80.5258 363.876 82.6989ZM359.681 84.5119C359.326 83.3565 359.001 82.3834 358.712 81.5879C358.424 80.7925 358.135 80.1614 357.846 79.6948C357.557 79.2282 357.25 78.9127 356.922 78.7528C356.593 78.5928 356.224 78.575 355.811 78.7039C355.397 78.8283 355.099 79.0461 354.917 79.3527C354.735 79.6593 354.646 80.0859 354.66 80.628C354.673 81.1702 354.775 81.8368 354.966 82.6278C355.157 83.4188 355.419 84.3653 355.757 85.4585C356.108 86.5961 356.433 87.5648 356.73 88.3647C357.033 89.169 357.335 89.809 357.637 90.2978C357.939 90.7821 358.259 91.1154 358.592 91.2976C358.926 91.4798 359.299 91.5065 359.712 91.3776C360.126 91.2487 360.419 91.0354 360.592 90.7288C360.77 90.4222 360.846 90.0045 360.823 89.4623C360.801 88.9246 360.694 88.2492 360.499 87.436C360.303 86.6227 360.032 85.6495 359.681 84.5119Z" fill="#007B0A"/>
<path d="M367.975 90.2804C367.678 89.4929 367.361 88.6591 367.02 87.7789C366.68 86.8988 366.329 85.9937 365.972 85.0673C365.612 84.1408 365.248 83.218 364.874 82.2986C364.503 81.3793 364.136 80.4921 363.779 79.6297C363.398 78.7318 363.051 78.1688 362.741 77.9479C362.574 77.8552 362.4 77.7947 362.213 77.7697C362.026 77.7448 361.833 77.7198 361.626 77.7056L361.619 77.0856C362.277 77.1176 362.988 77.139 363.752 77.1533C364.513 77.164 365.265 77.1675 366.006 77.1604C366.376 77.1568 366.81 77.1533 367.304 77.1497C367.798 77.1461 368.299 77.1355 368.803 77.1212C369.307 77.107 369.791 77.0891 370.255 77.0678C370.719 77.0464 371.093 77.0214 371.38 77.0001L371.387 77.6201C371.12 77.6593 370.846 77.6985 370.569 77.7412C370.292 77.7804 370.008 77.841 369.721 77.9158C369.227 78.0334 368.983 78.2793 368.987 78.657C368.987 78.7496 369 78.8779 369.02 79.0382C369.043 79.1986 369.08 79.4053 369.137 79.6583C369.19 79.9112 369.27 80.2248 369.377 80.6025C369.484 80.9767 369.634 81.4363 369.825 81.9815C369.952 82.3556 370.095 82.769 370.255 83.218C370.416 83.6669 370.589 84.2121 370.783 84.8499C371.107 84.2085 371.424 83.585 371.734 82.9792C372.048 82.3735 372.365 81.7641 372.686 81.1513C373.009 80.5384 373.337 79.9006 373.67 79.2378C374.004 78.5786 374.361 77.8588 374.742 77.0856L376.131 77.0749C376.488 77.8054 376.832 78.4824 377.159 79.1095C377.486 79.7366 377.806 80.3531 378.12 80.9624C378.437 81.5717 378.761 82.181 379.098 82.7868C379.436 83.3961 379.783 84.0446 380.14 84.7395C380.26 84.3618 380.364 84.0233 380.454 83.7204C380.544 83.4175 380.627 83.1324 380.707 82.8581C380.788 82.5837 380.864 82.3022 380.944 82.01C381.025 81.7178 381.111 81.3829 381.212 81.0052C381.388 80.3068 381.512 79.7758 381.579 79.4088C381.646 79.0418 381.679 78.7532 381.679 78.5465C381.676 78.1902 381.435 77.9479 380.961 77.8196C380.484 77.6913 379.94 77.6022 379.319 77.5524L379.312 76.9324C379.602 76.9502 379.86 76.9644 380.087 76.9822C380.314 77.0001 380.541 77.0107 380.768 77.0179C380.995 77.025 381.235 77.0286 381.492 77.025C381.749 77.0214 382.063 77.0214 382.433 77.0179C382.784 77.0143 383.078 77.0072 383.315 76.9965C383.552 76.9858 383.772 76.9751 383.979 76.9609C384.186 76.9502 384.396 76.9395 384.613 76.9288C384.83 76.9181 385.091 76.9003 385.401 76.8789L385.408 77.4989C385.324 77.5167 385.201 77.5488 385.037 77.588C384.874 77.6272 384.73 77.6664 384.607 77.7056C384.443 77.7626 384.299 77.8303 384.176 77.9051C384.052 77.98 383.942 78.094 383.839 78.2472C383.739 78.3969 383.635 78.5928 383.535 78.828C383.435 79.0632 383.315 79.3803 383.174 79.7758C382.577 81.4541 382.003 83.1324 381.455 84.8107C380.908 86.489 380.283 88.2814 379.582 90.1841L378.07 90.1984C377.776 89.6176 377.449 88.9904 377.092 88.317C376.735 87.6435 376.368 86.9523 375.987 86.2396C375.61 85.527 375.223 84.8143 374.835 84.091C374.445 83.3712 374.061 82.6657 373.684 81.9708C373.38 82.5766 373.049 83.218 372.686 83.8985C372.322 84.5791 371.954 85.2811 371.581 86.008C371.207 86.7349 370.836 87.4582 370.462 88.1745C370.088 88.8907 369.741 89.5891 369.421 90.2697L367.975 90.2804Z" fill="#007B0A"/>
<defs>
<radialGradient id="paint0_angular" cx="0" cy="0" r="1" gradientUnits="userSpaceOnUse" gradientTransform="translate(417.608 44.2873) rotate(154.618) scale(80.5168 154.041)">
<stop offset="0.172067" stop-color="#FFCDCD"/>
<stop offset="0.505208" stop-color="#FFCFBF"/>
<stop offset="0.671875" stop-color="#FFD680"/>
<stop offset="0.92358" stop-color="#FFDD46"/>
</radialGradient>
</defs>
</svg>
